<svg width="16" height="16" viewBox="0 0 16 16" fill="none" xmlns="http://www.w3.org/2000/svg">
<path d="M3.33333 14C2.96667 14 2.65267 13.8693 2.39133 13.608C2.13 13.3467 1.99956 13.0329 2 12.6667V3.33333C2 2.96667 2.13067 2.65267 2.392 2.39133C2.65333 2.13 2.96711 1.99956 3.33333 2H12.6667C13.0333 2 13.3473 2.13067 13.6087 2.392C13.87 2.65333 14.0004 2.96711 14 3.33333V12.6667C14 13.0333 13.8693 13.3473 13.608 13.6087C13.3467 13.87 13.0329 14.0004 12.6667 14H3.33333ZM7.06667 10.5167C7.15556 10.5167 7.23889 10.5027 7.31667 10.4747C7.39445 10.4467 7.46667 10.3996 7.53333 10.3333L11.3167 6.55C11.4389 6.42778 11.5 6.27778 11.5 6.1C11.5 5.92222 11.4333 5.76667 11.3 5.63333C11.1778 5.51111 11.0222 5.45 10.8333 5.45C10.6444 5.45 10.4889 5.51111 10.3667 5.63333L7.06667 8.93333L5.61667 7.48334C5.49445 7.36111 5.34445 7.3 5.16667 7.3C4.98889 7.3 4.83333 7.36667 4.7 7.5C4.57778 7.62222 4.51667 7.77778 4.51667 7.96667C4.51667 8.15556 4.57778 8.31111 4.7 8.43333L6.6 10.3333C6.66667 10.4 6.73889 10.4471 6.81667 10.4747C6.89445 10.5022 6.97778 10.5162 7.06667 10.5167Z" fill="white"/>
</svg>
