<svg width="14" height="14" viewBox="0 0 14 14" fill="none" xmlns="http://www.w3.org/2000/svg">
<path d="M10.3334 3.00004H13.6667V4.33337H12.3334V13C12.3334 13.1769 12.2631 13.3464 12.1381 13.4714C12.0131 13.5965 11.8435 13.6667 11.6667 13.6667H2.33337C2.15656 13.6667 1.98699 13.5965 1.86197 13.4714C1.73695 13.3464 1.66671 13.1769 1.66671 13V4.33337H0.333374V3.00004H3.66671V1.00004C3.66671 0.82323 3.73695 0.65366 3.86197 0.528636C3.98699 0.403612 4.15656 0.333374 4.33337 0.333374H9.66671C9.84352 0.333374 10.0131 0.403612 10.1381 0.528636C10.2631 0.65366 10.3334 0.82323 10.3334 1.00004V3.00004ZM11 4.33337H3.00004V12.3334H11V4.33337ZM7.94271 8.33337L9.12137 9.51204L8.17871 10.4547L7.00004 9.27604L5.82137 10.4547L4.87871 9.51204L6.05737 8.33337L4.87871 7.15471L5.82137 6.21204L7.00004 7.39071L8.17871 6.21204L9.12137 7.15471L7.94271 8.33337ZM5.00004 1.66671V3.00004H9.00004V1.66671H5.00004Z" fill="white"/>
</svg>
