<svg width="16" height="16" viewBox="0 0 16 16" fill="none" xmlns="http://www.w3.org/2000/svg">
<path d="M7.99998 1.33337C7.1245 1.33337 6.25759 1.50581 5.44876 1.84084C4.63992 2.17588 3.90499 2.66694 3.28593 3.286C2.03569 4.53624 1.33331 6.23193 1.33331 8.00004C1.33331 10.9467 3.24665 13.4467 5.89331 14.3334C6.22665 14.3867 6.33331 14.18 6.33331 14V12.8734C4.48665 13.2734 4.09331 11.98 4.09331 11.98C3.78665 11.2067 3.35331 11 3.35331 11C2.74665 10.5867 3.39998 10.6 3.39998 10.6C4.06665 10.6467 4.41998 11.2867 4.41998 11.2867C4.99998 12.3 5.97998 12 6.35998 11.84C6.41998 11.4067 6.59331 11.1134 6.77998 10.9467C5.29998 10.78 3.74665 10.2067 3.74665 7.66671C3.74665 6.92671 3.99998 6.33337 4.43331 5.86004C4.36665 5.69337 4.13331 5.00004 4.49998 4.10004C4.49998 4.10004 5.05998 3.92004 6.33331 4.78004C6.85998 4.63337 7.43331 4.56004 7.99998 4.56004C8.56665 4.56004 9.13998 4.63337 9.66665 4.78004C10.94 3.92004 11.5 4.10004 11.5 4.10004C11.8666 5.00004 11.6333 5.69337 11.5666 5.86004C12 6.33337 12.2533 6.92671 12.2533 7.66671C12.2533 10.2134 10.6933 10.7734 9.20665 10.94C9.44665 11.1467 9.66665 11.5534 9.66665 12.1734V14C9.66665 14.18 9.77331 14.3934 10.1133 14.3334C12.76 13.44 14.6666 10.9467 14.6666 8.00004C14.6666 7.12456 14.4942 6.25765 14.1592 5.44882C13.8241 4.63998 13.3331 3.90505 12.714 3.286C12.095 2.66694 11.36 2.17588 10.5512 1.84084C9.74237 1.50581 8.87546 1.33337 7.99998 1.33337Z" fill="white"/>
</svg>
