<svg width="16" height="16" viewBox="0 0 16 16" fill="none" xmlns="http://www.w3.org/2000/svg">
<g clip-path="url(#clip0_29642_9501)">
<path d="M2 3.5C2 3.89782 2.15804 4.27936 2.43934 4.56066C2.72064 4.84196 3.10218 5 3.5 5C3.89782 5 4.27936 4.84196 4.56066 4.56066C4.84196 4.27936 5 3.89782 5 3.5C5 3.10218 4.84196 2.72064 4.56066 2.43934C4.27936 2.15804 3.89782 2 3.5 2C3.10218 2 2.72064 2.15804 2.43934 2.43934C2.15804 2.72064 2 3.10218 2 3.5ZM6.5 12.5C6.5 12.8978 6.65804 13.2794 6.93934 13.5607C7.22064 13.842 7.60218 14 8 14C8.39782 14 8.77936 13.842 9.06066 13.5607C9.34196 13.2794 9.5 12.8978 9.5 12.5C9.5 12.1022 9.34196 11.7206 9.06066 11.4393C8.77936 11.158 8.39782 11 8 11C7.60218 11 7.22064 11.158 6.93934 11.4393C6.65804 11.7206 6.5 12.1022 6.5 12.5ZM6.5 8C6.5 8.39782 6.65804 8.77936 6.93934 9.06066C7.22064 9.34196 7.60218 9.5 8 9.5C8.39782 9.5 8.77936 9.34196 9.06066 9.06066C9.34196 8.77936 9.5 8.39782 9.5 8C9.5 7.60218 9.34196 7.22064 9.06066 6.93934C8.77936 6.65804 8.39782 6.5 8 6.5C7.60218 6.5 7.22064 6.65804 6.93934 6.93934C6.65804 7.22064 6.5 7.60218 6.5 8ZM6.5 3.5C6.5 3.89782 6.65804 4.27936 6.93934 4.56066C7.22064 4.84196 7.60218 5 8 5C8.39782 5 8.77936 4.84196 9.06066 4.56066C9.34196 4.27936 9.5 3.89782 9.5 3.5C9.5 3.10218 9.34196 2.72064 9.06066 2.43934C8.77936 2.15804 8.39782 2 8 2C7.60218 2 7.22064 2.15804 6.93934 2.43934C6.65804 2.72064 6.5 3.10218 6.5 3.5ZM11 3.5C11 3.89782 11.158 4.27936 11.4393 4.56066C11.7206 4.84196 12.1022 5 12.5 5C12.8978 5 13.2794 4.84196 13.5607 4.56066C13.842 4.27936 14 3.89782 14 3.5C14 3.10218 13.842 2.72064 13.5607 2.43934C13.2794 2.15804 12.8978 2 12.5 2C12.1022 2 11.7206 2.15804 11.4393 2.43934C11.158 2.72064 11 3.10218 11 3.5Z" fill="white"/>
</g>
<defs>
<clipPath id="clip0_29642_9501">
<rect width="12" height="12" fill="white" transform="translate(2 2)"/>
</clipPath>
</defs>
</svg>
