<svg width="32" height="32" viewBox="0 0 32 32" fill="none" xmlns="http://www.w3.org/2000/svg">
<path d="M13.9026 19.7368C13.9026 18.1026 14.0491 16.9272 14.3421 16.2106C14.6342 15.4948 15.2544 14.7132 16.2026 13.8658C17.0298 13.1395 17.6601 12.5088 18.0935 11.9737C18.5276 11.4395 18.7447 10.8294 18.7447 10.1434C18.7447 9.31623 18.4675 8.63026 17.9131 8.08553C17.3579 7.54079 16.586 7.26842 15.5974 7.26842C14.5684 7.26842 13.7864 7.58114 13.2514 8.20658C12.7171 8.83202 12.339 9.46754 12.1171 10.1132L9 8.78158C9.42368 7.49035 10.2004 6.37061 11.3303 5.42237C12.4601 4.47412 13.8825 4 15.5974 4C17.7158 4 19.3452 4.59033 20.4855 5.771C21.625 6.95086 22.1947 8.36798 22.1947 10.0224C22.1947 11.0311 21.9781 11.8938 21.5447 12.6105C21.1105 13.3263 20.4294 14.1382 19.5013 15.0461C18.5127 15.9943 17.9127 16.7154 17.7013 17.2093C17.489 17.704 17.3829 18.5465 17.3829 19.7368H13.9026ZM15.5974 27C14.9316 27 14.3618 26.7631 13.8881 26.2894C13.4136 25.8149 13.1763 25.2447 13.1763 24.5789C13.1763 23.9132 13.4136 23.343 13.8881 22.8685C14.3618 22.3948 14.9316 22.1579 15.5974 22.1579C16.2632 22.1579 16.8333 22.3948 17.3078 22.8685C17.7816 23.343 18.0184 23.9132 18.0184 24.5789C18.0184 25.2447 17.7816 25.8149 17.3078 26.2894C16.8333 26.7631 16.2632 27 15.5974 27Z" fill="black"/>
</svg>
