<svg width="32" height="32" viewBox="0 0 32 32" fill="none" xmlns="http://www.w3.org/2000/svg">
<path d="M10.7234 17.9545C8.7335 17.4342 6.72412 17.7723 4.48912 19.5L5.38925 22C7.22401 20.6206 8.8789 20.1728 10.3831 20.5657C11.9706 20.981 13.5797 22.131 15.5187 23.7334C19.7241 27.209 24.9304 25.9553 27.8497 23L26.5063 21C24.1798 23.3543 20.0239 24.3833 16.4623 21.4408C14.5174 19.833 12.6609 18.4621 10.7234 17.9545Z" fill="black"/>
<path d="M25.4293 18.6384C25.2846 18.7148 25.1385 18.787 24.9893 18.8539C22.1809 20.1378 18.6456 19.9456 15.5202 17.362C13.582 15.7595 11.9721 14.6095 10.3846 14.1943C8.84967 13.7929 7.27348 14.0658 5.387 15.5238L4.48911 13.1929C6.7256 11.4662 8.735 11.0627 10.7249 11.5831C12.6631 12.0907 14.5196 13.4616 16.4645 15.0693C20.0261 18.0119 24.1776 17.226 26.504 14.8718L27.8497 16.6555C27.7826 16.8038 27.6954 16.9317 27.5931 17.0317C26.9247 17.6996 26.1972 18.2398 25.4293 18.6384Z" fill="black"/>
<path d="M9.69435 7.68904C9.06883 7.61233 8.43876 7.66383 7.82361 7.84195C7.06062 8.06071 6.25791 8.32887 5.38925 9L4.48911 6.5C6.72485 4.77334 8.73725 4.69127 10.7272 5.21161C12.6646 5.7192 14.5211 7.09012 16.466 8.69785C20.0276 11.6404 24.1769 11.0521 26.504 8.69785L27.8497 10.5C24.9296 13.4553 19.7278 14.4661 15.5224 10.9905C13.5835 9.38915 11.9743 8.23804 10.3869 7.82284C10.1568 7.76337 9.9267 7.71771 9.69435 7.68904Z" fill="black"/>
</svg>
