<svg width="32" height="32" viewBox="0 0 32 32" fill="none" xmlns="http://www.w3.org/2000/svg">
<path d="M15.4819 5C13.4088 4.99996 11.3822 5.61466 9.65846 6.76639C7.93472 7.91811 6.59123 9.55512 5.79788 11.4704C5.00454 13.3857 4.79696 15.4932 5.20142 17.5264C5.60587 19.5597 6.60419 21.4273 8.07011 22.8932C9.04164 23.8744 10.1975 24.654 11.4712 25.1871C12.7449 25.7203 14.1115 25.9965 15.4923 26C16.8731 26.0034 18.241 25.734 19.5173 25.2072C20.7937 24.6804 21.9534 23.9066 22.9298 22.9302C23.9062 21.9539 24.6801 20.7942 25.207 19.5179C25.7338 18.2416 26.0033 16.8737 26 15.4929C25.9966 14.1121 25.7204 12.7456 25.1874 11.4719C24.6543 10.1981 23.8747 9.04224 22.8936 8.07067C20.9203 6.11632 18.2592 5.01383 15.4819 5Z" stroke="black" stroke-width="2.5" stroke-linecap="round" stroke-linejoin="round"/>
</svg>
